<svg width="26" height="26" viewBox="0 0 26 26" fill="none" xmlns="http://www.w3.org/2000/svg">
<path fill-rule="evenodd" clip-rule="evenodd" d="M2.7055 9.11819C2.9575 8.27819 3.29525 7.46444 3.71525 6.69269C4.942 4.43519 6.8495 2.57144 9.13675 1.40069C10.3022 0.802186 11.5605 0.385687 12.8538 0.172187C13.4418 0.0741865 14.0332 0.0216865 14.6283 0.00418653C14.8015 0.000686533 14.973 -0.00106347 15.1462 0.000686533C16.1945 0.0234365 17.234 0.158187 18.2472 0.427687C20.083 0.915937 21.7998 1.81894 23.2453 3.04919C23.8665 3.57944 24.4318 4.16919 24.9463 4.80444L25.0198 4.90244C25.1772 5.14569 25.2875 5.40294 25.3242 5.69344C25.3487 5.89469 25.3382 6.10119 25.2927 6.29894C25.256 6.45819 25.1965 6.61219 25.1178 6.75394C24.7747 7.37169 24.0748 7.72869 23.3748 7.64294C23.0912 7.60794 22.8165 7.50294 22.5837 7.34019C22.4823 7.26844 22.3947 7.18794 22.3072 7.10044C22.1655 6.93769 22.0325 6.76969 21.889 6.60694C21.546 6.22719 21.1768 5.87194 20.7778 5.55169C19.8748 4.82194 18.8335 4.26544 17.7257 3.91894C16.3783 3.49894 14.9362 3.39394 13.5415 3.60569C12.3428 3.78944 11.1825 4.21294 10.1447 4.84469C8.49625 5.84569 7.18725 7.35594 6.42425 9.11819H17.6523C18.6182 9.11819 19.4023 9.90219 19.4023 10.8682C19.4023 11.8342 18.6182 12.6182 17.6523 12.6182H5.67C5.6665 12.8737 5.67175 13.1309 5.6875 13.3864C5.7085 13.7154 5.747 14.0427 5.803 14.3682H15.057C16.023 14.3682 16.807 15.1522 16.807 16.1182C16.807 17.0842 16.023 17.8682 15.057 17.8682H7.182C7.329 18.0922 7.48475 18.3092 7.651 18.5209C8.3405 19.3994 9.18925 20.1519 10.1447 20.7329C11.116 21.3227 12.194 21.7322 13.3123 21.9317C14.6055 22.1627 15.9478 22.1189 17.2218 21.7987C18.6007 21.4539 19.8923 20.7837 20.9755 19.8614C21.434 19.4712 21.8487 19.0354 22.2267 18.5682L22.3072 18.4754C22.3947 18.3897 22.4823 18.3074 22.5837 18.2357C22.8165 18.0729 23.0895 17.9679 23.373 17.9329C23.576 17.9084 23.7825 17.9189 23.9802 17.9644C24.1395 18.0012 24.2935 18.0607 24.4352 18.1394C25.053 18.4807 25.41 19.1824 25.3242 19.8824C25.2875 20.1729 25.1772 20.4302 25.0198 20.6734C24.927 20.7959 24.8308 20.9149 24.731 21.0339C24.311 21.5239 23.863 21.9859 23.3783 22.4112C22.267 23.3842 20.9913 24.1612 19.6175 24.7002C17.9813 25.3407 16.219 25.6347 14.4655 25.5682C12.8223 25.5052 11.1947 25.1237 9.695 24.4464C8.24425 23.7902 6.92125 22.8592 5.80825 21.7199C4.767 20.6542 3.91475 19.4082 3.3005 18.0502C3.2725 17.9907 3.24625 17.9294 3.22 17.8682H2.1665C1.2005 17.8682 0.4165 17.0842 0.4165 16.1182C0.4165 15.1522 1.2005 14.3682 2.1665 14.3682H2.26625C2.1945 13.7889 2.163 13.2027 2.17 12.6182H1.75C0.784 12.6182 0 11.8342 0 10.8682C0 9.90219 0.784 9.11819 1.75 9.11819H2.7055Z" fill="#999999"/>
</svg>
